<svg xmlns="http://www.w3.org/2000/svg"
    xmlns:xlink="http://www.w3.org/1999/xlink">

    <symbol id="facebook" viewBox="0 0 10 16" fill="none">
        <path d="M8.71875 9L9.15625 6.125H6.375V4.25C6.375 3.4375 6.75 2.6875 8 2.6875H9.28125V0.21875C9.28125 0.21875 8.125 0 7.03125 0C4.75 0 3.25 1.40625 3.25 3.90625V6.125H0.6875V9H3.25V16H6.375V9H8.71875Z" fill="white"/>
    </symbol>

    <symbol id="instagram" viewBox="0 0 17 18" fill="none">
        <path d="M8.5 4.60742C6.125 4.60742 4.23242 6.53711 4.23242 8.875C4.23242 11.25 6.125 13.1426 8.5 13.1426C10.8379 13.1426 12.7676 11.25 12.7676 8.875C12.7676 6.53711 10.8379 4.60742 8.5 4.60742ZM8.5 11.6582C6.97852 11.6582 5.7168 10.4336 5.7168 8.875C5.7168 7.35352 6.94141 6.12891 8.5 6.12891C10.0215 6.12891 11.2461 7.35352 11.2461 8.875C11.2461 10.4336 10.0215 11.6582 8.5 11.6582ZM13.918 4.45898C13.918 3.90234 13.4727 3.45703 12.916 3.45703C12.3594 3.45703 11.9141 3.90234 11.9141 4.45898C11.9141 5.01562 12.3594 5.46094 12.916 5.46094C13.4727 5.46094 13.918 5.01562 13.918 4.45898ZM16.7383 5.46094C16.6641 4.125 16.3672 2.9375 15.4023 1.97266C14.4375 1.00781 13.25 0.710938 11.9141 0.636719C10.541 0.5625 6.42188 0.5625 5.04883 0.636719C3.71289 0.710938 2.5625 1.00781 1.56055 1.97266C0.595703 2.9375 0.298828 4.125 0.224609 5.46094C0.150391 6.83398 0.150391 10.9531 0.224609 12.3262C0.298828 13.6621 0.595703 14.8125 1.56055 15.8145C2.5625 16.7793 3.71289 17.0762 5.04883 17.1504C6.42188 17.2246 10.541 17.2246 11.9141 17.1504C13.25 17.0762 14.4375 16.7793 15.4023 15.8145C16.3672 14.8125 16.6641 13.6621 16.7383 12.3262C16.8125 10.9531 16.8125 6.83398 16.7383 5.46094ZM14.957 13.7734C14.6973 14.5156 14.1035 15.0723 13.3984 15.3691C12.2852 15.8145 9.6875 15.7031 8.5 15.7031C7.27539 15.7031 4.67773 15.8145 3.60156 15.3691C2.85938 15.0723 2.30273 14.5156 2.00586 13.7734C1.56055 12.6973 1.67188 10.0996 1.67188 8.875C1.67188 7.6875 1.56055 5.08984 2.00586 3.97656C2.30273 3.27148 2.85938 2.71484 3.60156 2.41797C4.67773 1.97266 7.27539 2.08398 8.5 2.08398C9.6875 2.08398 12.2852 1.97266 13.3984 2.41797C14.1035 2.67773 14.6602 3.27148 14.957 3.97656C15.4023 5.08984 15.291 7.6875 15.291 8.875C15.291 10.0996 15.4023 12.6973 14.957 13.7734Z" fill="white"/>
    </symbol>

    <symbol id="twitter" viewBox="0 0 14 12" fill="none">
        <path d="M12.5508 2.90625C13.0977 2.49609 13.5898 2.00391 13.9727 1.42969C13.4805 1.64844 12.9062 1.8125 12.332 1.86719C12.9336 1.51172 13.3711 0.964844 13.5898 0.28125C13.043 0.609375 12.4141 0.855469 11.7852 0.992188C11.2383 0.417969 10.5 0.0898438 9.67969 0.0898438C8.09375 0.0898438 6.80859 1.375 6.80859 2.96094C6.80859 3.17969 6.83594 3.39844 6.89062 3.61719C4.51172 3.48047 2.37891 2.33203 0.957031 0.609375C0.710938 1.01953 0.574219 1.51172 0.574219 2.05859C0.574219 3.04297 1.06641 3.91797 1.85938 4.4375C1.39453 4.41016 0.929688 4.30078 0.546875 4.08203V4.10938C0.546875 5.50391 1.53125 6.65234 2.84375 6.92578C2.625 6.98047 2.35156 7.03516 2.10547 7.03516C1.91406 7.03516 1.75 7.00781 1.55859 6.98047C1.91406 8.12891 2.98047 8.94922 4.23828 8.97656C3.25391 9.74219 2.02344 10.207 0.683594 10.207C0.4375 10.207 0.21875 10.1797 0 10.1523C1.25781 10.9727 2.76172 11.4375 4.40234 11.4375C9.67969 11.4375 12.5508 7.08984 12.5508 3.28906C12.5508 3.15234 12.5508 3.04297 12.5508 2.90625Z" fill="#141414"/>
    </symbol>

    <symbol id="linkedin" viewBox="0 0 13 13" fill="none">
        <path d="M3.10938 13V4.82422H0.566406V13H3.10938ZM1.82422 3.73047C2.64453 3.73047 3.30078 3.04688 3.30078 2.22656C3.30078 1.43359 2.64453 0.777344 1.82422 0.777344C1.03125 0.777344 0.375 1.43359 0.375 2.22656C0.375 3.04688 1.03125 3.73047 1.82422 3.73047ZM12.5977 13H12.625V8.51562C12.625 6.32812 12.1328 4.63281 9.5625 4.63281C8.33203 4.63281 7.51172 5.31641 7.15625 5.94531H7.12891V4.82422H4.69531V13H7.23828V8.95312C7.23828 7.88672 7.42969 6.875 8.74219 6.875C10.0547 6.875 10.082 8.07812 10.082 9.03516V13H12.5977Z" fill="#141414"/>
    </symbol>

    <symbol id="shopping-cart" viewBox="0 0 17 17" fill="none">
        <path d="M2.60593 2H0V0H4.39407L4.84288 4H16V9.93845L3.76941 12.3694L2.60593 2ZM15.5 17C14.6716 17 14 16.3284 14 15.5C14 14.6716 14.6716 14 15.5 14C16.3284 14 17 14.6716 17 15.5C17 16.3284 16.3284 17 15.5 17ZM5.5 17C4.67157 17 4 16.3284 4 15.5C4 14.6716 4.67157 14 5.5 14C6.32843 14 7 14.6716 7 15.5C7 16.3284 6.32843 17 5.5 17Z" fill="black"/>
    </symbol>
</svg>